<svg width="993" height="555" viewBox="0 0 993 555" fill="none" xmlns="http://www.w3.org/2000/svg">
<path d="M865.5 536H42.5H0V469.225C0 409.178 48.678 360.5 108.726 360.5C163.255 360.5 209.35 320.108 216.51 266.051L219 247.249C227.585 182.432 282.855 134 348.239 134H575.26C620.948 134 662.283 161.101 680.5 203.001L686.026 215.71C700.887 249.891 734.609 272 771.881 272C823.585 272 865.5 313.915 865.5 365.62V536Z" fill="#F3F6FF"/>
<path d="M280.5 16C276.082 16 272.5 12.4183 272.5 8C272.5 3.58172 276.082 0 280.5 0C284.918 0 288.5 3.58172 288.5 8C288.5 12.4183 284.918 16 280.5 16Z" fill="#54B7FF"/>
<path d="M231 56.4995C219.954 56.4995 211 47.5452 211 36.4995C211 25.4538 219.954 16.4995 231 16.4995C242.046 16.4995 251 25.4538 251 36.4995C251 47.5452 242.046 56.4995 231 56.4995Z" stroke="#54B7FF"/>
<path d="M272.867 106.078C276.109 100.227 283.493 98.1207 289.359 101.372L342.46 130.807C348.326 134.058 350.452 141.436 347.209 147.286L306.108 221.435C302.866 227.284 295.481 229.391 289.616 226.14L236.514 196.705C230.649 193.454 228.523 186.076 231.766 180.226L272.867 106.078Z" fill="white" stroke="#E5E5E5" stroke-width="2"/>
<mask id="mask0" mask-type="alpha" maskUnits="userSpaceOnUse" x="250" y="158" width="38" height="38">
<path d="M259.785 193.627C268.804 198.626 280.169 195.368 285.169 186.348C290.168 177.329 286.909 165.964 277.89 160.965C268.871 155.965 257.506 159.224 252.507 168.243C247.507 177.263 250.766 188.627 259.785 193.627ZM262.889 188.027C268.816 191.313 276.284 189.171 279.57 183.244C282.855 177.317 280.713 169.849 274.786 166.564C268.859 163.278 261.391 165.42 258.106 171.347C254.821 177.274 256.962 184.742 262.889 188.027Z" fill="white"/>
</mask>
<g mask="url(#mask0)">
<path d="M259.785 193.626C268.805 198.626 280.169 195.367 285.169 186.348C290.168 177.328 286.909 165.964 277.89 160.964C268.871 155.965 257.506 159.224 252.507 168.243C247.507 177.262 250.766 188.627 259.785 193.626Z" fill="#FAFAFA"/>
</g>
<mask id="mask1" mask-type="alpha" maskUnits="userSpaceOnUse" x="250" y="158" width="38" height="38">
<path d="M259.785 193.627C268.804 198.626 280.169 195.368 285.169 186.348C290.168 177.329 286.909 165.964 277.89 160.965C268.871 155.965 257.506 159.224 252.507 168.243C247.507 177.263 250.766 188.627 259.785 193.627ZM262.889 188.027C268.816 191.313 276.284 189.171 279.57 183.244C282.855 177.317 280.713 169.849 274.786 166.564C268.859 163.278 261.391 165.42 258.106 171.347C254.821 177.274 256.962 184.742 262.889 188.027Z" fill="white"/>
</mask>
<g mask="url(#mask1)">
<path d="M285.169 186.348C286.959 183.118 287.751 179.43 287.446 175.749C287.14 172.069 285.75 168.562 283.451 165.672C281.152 162.782 278.047 160.638 274.53 159.512C271.013 158.387 267.241 158.329 263.691 159.347C260.141 160.365 256.973 162.413 254.586 165.231C252.2 168.05 250.704 171.513 250.285 175.182C249.868 178.851 250.547 182.562 252.238 185.845C253.929 189.128 256.555 191.837 259.785 193.627L268.838 177.295L285.169 186.348Z" fill="#FF8282"/>
</g>
<path d="M270.868 133.484C271.27 132.76 272.155 132.482 272.845 132.865L296.584 146.024C297.274 146.406 297.508 147.304 297.107 148.028C296.705 148.753 295.82 149.03 295.13 148.648L271.39 135.489C270.7 135.106 270.466 134.209 270.868 133.484Z" fill="white"/>
<path d="M267.43 141.181C267.831 140.456 268.72 140.181 269.414 140.566L287.016 150.323C287.71 150.708 287.947 151.607 287.546 152.331C287.144 153.056 286.256 153.331 285.561 152.947L267.96 143.19C267.265 142.805 267.028 141.905 267.43 141.181Z" fill="white"/>
<path d="M333.323 142.826L283.469 115.191C282.503 114.656 281.286 115.005 280.751 115.971L276.872 122.968C276.337 123.934 276.686 125.151 277.652 125.687L327.505 153.321C328.471 153.856 329.688 153.507 330.224 152.541L334.102 145.544C334.638 144.578 334.289 143.361 333.323 142.826Z" fill="#FF8282"/>
<path d="M713.128 187.18L733.258 148.979L736.316 143.179C736.643 142.553 736.922 141.916 737.152 141.271C738.237 138.245 738.255 135.034 737.353 132.103C736.249 128.51 733.764 125.336 730.16 123.447L659.54 86.46C655.568 84.3781 650.794 84.5337 646.963 86.8565L620.13 103.14C618.666 104.029 617.426 105.185 616.452 106.518C614.94 108.581 614.07 111.078 614.007 113.693C614.004 113.819 614 113.945 614 114.067C614 114.3 614.007 114.534 614.022 114.771L614.052 115.238L615.497 139.285L615.887 145.812C616.158 150.26 618.733 154.246 622.694 156.32L693.34 193.321C700.503 197.074 709.364 194.325 713.128 187.18ZM636.352 119.998C636.263 119.909 636.185 119.82 636.099 119.735C635.902 119.52 635.72 119.298 635.553 119.075C633.053 115.749 633.32 111.022 636.352 108.004C639.674 104.688 645.054 104.688 648.383 108.004C651.073 110.685 651.582 114.712 649.917 117.905C649.873 117.997 649.821 118.094 649.761 118.186C649.713 118.279 649.657 118.368 649.598 118.46C649.431 118.73 649.245 118.997 649.044 119.253C648.985 119.331 648.918 119.412 648.851 119.486C648.702 119.66 648.546 119.827 648.383 119.997C645.053 123.309 639.674 123.309 636.352 119.998Z" fill="#54B7FF"/>
<path d="M725.138 160.981L640 151.938L727.518 150.001C730.098 149.944 731.799 152.697 730.617 155.016L728.518 159.135C727.876 160.396 726.533 161.129 725.138 160.981Z" fill="#282F48"/>
<path d="M643.02 153H731.283C739.41 153 746 146.453 746 138.377V88.6268C746 80.5474 739.411 74 731.283 74H643.05C638.545 74 634.372 76.3509 632.056 80.1881L615.825 107.07C613.384 111.115 613.392 116.172 615.846 120.21L628.639 141.246L632.047 146.849C634.371 150.666 638.528 153 643.02 153ZM650.072 117.412C650.026 117.504 649.975 117.6 649.917 117.692C649.866 117.784 649.811 117.876 649.753 117.968C649.585 118.239 649.396 118.506 649.194 118.761C649.135 118.841 649.068 118.92 649 118.995C648.853 119.17 648.693 119.337 648.53 119.504C645.189 122.82 639.784 122.82 636.447 119.504C636.359 119.417 636.279 119.329 636.195 119.241C635.997 119.029 635.813 118.807 635.645 118.582C633.136 115.253 633.405 110.523 636.447 107.5C639.784 104.185 645.189 104.185 648.53 107.5C651.232 110.185 651.745 114.214 650.072 117.412Z" fill="#FF8282"/>
<path d="M671.619 102C672.848 102 674.451 102.181 676.43 102.542L676.362 105.082C674.497 104.721 672.916 104.54 671.619 104.54C670.3 104.54 669.345 104.8 668.753 105.32C668.185 105.839 667.9 106.629 667.9 107.691V108.571C667.9 109.136 667.969 109.588 668.105 109.926C668.264 110.243 668.537 110.525 668.924 110.773C669.311 110.999 669.891 111.236 670.664 111.485L673.837 112.535C675.361 113.054 676.43 113.743 677.045 114.601C677.682 115.459 678 116.712 678 118.361V119.004C678 121.014 677.409 122.516 676.226 123.51C675.066 124.503 673.155 125 670.493 125C669.197 125 667.536 124.774 665.512 124.323L665.58 121.714C667.468 122.166 669.083 122.392 670.425 122.392C672.131 122.392 673.337 122.143 674.042 121.647C674.747 121.127 675.1 120.325 675.1 119.242V118.124C675.1 117.333 674.918 116.735 674.554 116.328C674.213 115.899 673.598 115.538 672.711 115.244L669.197 114.093C667.627 113.573 666.535 112.907 665.921 112.094C665.307 111.259 665 110.005 665 108.334V107.962C665 105.997 665.523 104.518 666.57 103.524C667.639 102.508 669.322 102 671.619 102Z" fill="white"/>
<path d="M690.247 103L697 125H693.909L692.464 119.895H684.368L682.923 125H680L686.719 103H690.247ZM688.433 105.62L685.073 117.342H691.759L688.433 105.62Z" fill="white"/>
<path d="M701.956 103V122.481H711V125H699V103H701.956Z" fill="white"/>
<path d="M727 103V105.586H717.956V112.539H726.304V115.092H717.956V122.414H727V125H715V103H727Z" fill="white"/>
<path d="M644.644 115.644C641.502 118.785 636.408 118.785 633.266 115.644L613.356 95.7336C610.215 92.5918 610.215 87.4982 613.356 84.3564C616.498 81.2145 621.592 81.2145 624.734 84.3564L644.644 104.266C647.785 107.408 647.785 112.502 644.644 115.644Z" fill="url(#paint0_linear)"/>
<path fill-rule="evenodd" clip-rule="evenodd" d="M408.931 198.921C392.947 198.921 379.639 211.164 378.346 227.062L371.689 308.861C371.377 312.692 368.012 315.546 364.172 315.235C360.332 314.924 357.472 311.566 357.783 307.734L364.44 225.935C366.322 202.81 385.679 185 408.931 185C430.823 185 449.483 200.84 452.991 222.4L466.79 307.182C467.408 310.976 464.825 314.552 461.022 315.167C457.22 315.784 453.637 313.207 453.019 309.413L439.22 224.631C436.809 209.81 423.981 198.921 408.931 198.921Z" fill="#706AC7"/>
<path d="M520.195 286.919H324.377V316.252L525.177 318.738L520.195 286.919Z" fill="#FF8282"/>
<path d="M536.139 534.011H289L323.839 286.422L339.823 305.314L363.74 286.422H496.4L536.139 534.011Z" fill="#FEB1B1"/>
<path d="M312.917 510.537L328.363 535.503M339.823 304.32L312.917 510.537L339.823 304.32ZM312.917 510.537L289 535.503L312.917 510.537Z" stroke="white" stroke-width="1.2"/>
<path d="M576 534.011H328.861L363.7 286.422H536.262L576 534.011Z" fill="#FF8282"/>
<path d="M500.264 319.235C506.318 319.235 511.226 314.338 511.226 308.297C511.226 302.257 506.318 297.36 500.264 297.36C494.21 297.36 489.302 302.257 489.302 308.297C489.302 314.338 494.21 319.235 500.264 319.235Z" fill="white"/>
<path d="M404.597 319.235C410.651 319.235 415.559 314.338 415.559 308.297C415.559 302.257 410.651 297.36 404.597 297.36C398.543 297.36 393.635 302.257 393.635 308.297C393.635 314.338 398.543 319.235 404.597 319.235Z" fill="white"/>
<path fill-rule="evenodd" clip-rule="evenodd" d="M448.792 198.921C432.808 198.921 419.5 211.164 418.207 227.062L411.55 308.861C411.239 312.692 407.873 315.546 404.033 315.235C400.193 314.924 397.332 311.566 397.644 307.734L404.301 225.935C406.183 202.81 425.54 185 448.792 185C470.684 185 489.344 200.84 492.853 222.4L506.652 307.182C507.269 310.976 504.686 314.552 500.884 315.167C497.081 315.784 493.498 313.207 492.881 309.413L479.082 224.631C476.67 209.81 463.842 198.921 448.792 198.921Z" fill="#2F3B67"/>
<path d="M698.677 369H498.569V535.063H698.677V369Z" fill="#A3BAFF"/>
<path d="M773.905 369H573.797V535.063H773.905V369Z" fill="#CCD9FF"/>
<path d="M498.569 369H573.797L551.229 422.11H476L498.569 369Z" fill="#2C2770"/>
<path d="M773.154 369H573.797L596.366 422.11H795.723L773.154 369Z" fill="#6B8CFF"/>
<path d="M903 425H918V530H903V425Z" fill="#CCD9FF"/>
<path d="M928 400H892L896 435H924L928 400Z" fill="#A3BAFF"/>
<mask id="mask2" mask-type="alpha" maskUnits="userSpaceOnUse" x="892" y="400" width="36" height="35">
<path d="M928 400H892L896 435H924L928 400Z" fill="white"/>
</mask>
<g mask="url(#mask2)">
<path d="M886 401L936 398.5L931 409L890 418L886 401Z" fill="black"/>
</g>
<path d="M864 382H958V405H864V382Z" fill="#CCD9FF"/>
<path d="M856 527H966V536H856V527Z" fill="#CCD9FF"/>
<path d="M856 533H966V536H856V533Z" fill="#2C2770"/>
<path d="M691.156 515.985L706.404 512.972C714.515 511.369 721.543 496.464 721.543 496.464L736.692 503.961L727.728 519.854L725.406 529.542L691.451 518.246L691.156 515.985Z" fill="#FFAE64"/>
<path d="M693.908 518.343L724.937 526.659C726.118 530.17 725.037 534.047 722.21 536.441L716.87 540.962L704.899 535.258L705.673 532.029L698.56 530.919C695.625 530.461 692.795 529.479 690.207 528.019L681.047 522.853C679.794 522.146 679.01 520.826 678.989 519.387C678.957 517.166 680.722 515.333 682.943 515.283L698.562 514.925L694.121 515.439C693.217 515.544 692.62 516.432 692.864 517.309C693.005 517.814 693.402 518.207 693.908 518.343Z" fill="#2C2770"/>
<path d="M957.513 331.799L955.959 327H912.459L904.867 348.314L828.601 371.06C806.075 375.829 786.316 389.237 773.562 408.406L710.959 502.5L732.459 514.5L827.459 413.5L912.752 402.481C925.175 400.876 936.662 395.032 945.273 385.936C958.95 371.489 963.645 350.725 957.513 331.799Z" fill="#2C2770"/>
<path d="M949.959 327V349.43C949.959 372.613 932.708 392.173 909.707 395.07L818.959 406.5L729.959 513.5" stroke="white"/>
<path d="M808.474 537.075L817.319 524.295C822.025 517.496 816.689 501.905 816.689 501.905L832.782 496.737L837.416 514.385L842.495 522.955L810.261 538.492L808.474 537.075Z" fill="#FFAE64"/>
<path d="M812.091 536.851L840.151 521.212C843.444 522.91 845.368 526.445 845.006 530.132L844.322 537.096L831.758 541.337L830.065 538.48L824.187 542.637C821.761 544.353 819.047 545.618 816.173 546.372L806.001 549.043C804.609 549.408 803.128 549.007 802.111 547.989C800.541 546.417 800.531 543.873 802.09 542.29L813.051 531.157L810.222 534.618C809.646 535.323 809.836 536.377 810.622 536.836C811.075 537.1 811.633 537.106 812.091 536.851Z" fill="#2C2770"/>
<path d="M803.116 359.025L880.459 328H913.959L904.459 355L825.959 372L838.459 507.5H813.959L783.849 397.847C781.671 389.912 782.579 381.446 786.391 374.153C789.984 367.278 795.916 361.913 803.116 359.025Z" fill="#2C2770"/>
<path d="M828.459 373L816.959 379.5L831.959 509" stroke="white"/>
<path d="M908.959 338.5L912.459 328H900.459L828.459 373L908.959 338.5Z" fill="black" stroke="black"/>
<path d="M852 249L856 227.5L833.838 224L823.838 168.133L831.776 148.684C832.413 147.125 830.666 145.673 829.249 146.583C827.651 147.61 826.219 148.876 825.003 150.335L824.338 151.133L822.972 130.643C822.897 129.512 821.957 128.633 820.824 128.633C819.702 128.633 818.768 129.494 818.677 130.612L817.338 147.133L814.606 128.468C814.452 127.414 813.548 126.633 812.484 126.633C811.299 126.633 810.338 127.594 810.338 128.779V145.633L806.945 132.353C806.646 131.185 805.378 130.557 804.268 131.027C803.429 131.383 802.944 132.266 803.093 133.165L805.338 146.633L800.538 139.033C799.95 138.103 798.621 138.029 797.934 138.888C797.567 139.347 797.481 139.97 797.71 140.512L802.838 152.633L807.5 168.133L812.36 219.568C813.54 232.055 822.613 242.368 834.847 245.129L852 249Z" fill="#FFAE64"/>
<path d="M812.338 161.133C814.338 157.633 818.005 153.8 821.838 154.133C822.221 153.75 823.287 152.579 824.482 151.269" stroke="black"/>
<path d="M955.422 235.178L937.356 229.222C931.779 229.222 917.278 228.94 903.893 227.814C890.508 226.687 866.248 227.814 846.728 224.997L842.545 250.347C850.911 254.572 863.459 258.797 880.19 261.614C874.613 278.514 878.331 281.33 882.979 286.963L887.162 305.272L877.026 329H956.959L958.842 326.5L951.11 303L956 278L963 288.5L988 282L970.375 247.926C967.25 241.884 961.882 237.307 955.422 235.178Z" fill="#1BE3B3"/>
<mask id="mask3" mask-type="alpha" maskUnits="userSpaceOnUse" x="842" y="224" width="147" height="105">
<path d="M957.119 236.531L937.356 229.222C931.779 229.222 917.278 228.94 903.893 227.814C890.508 226.687 866.248 227.814 846.728 224.997L842.545 250.347C850.911 254.572 863.459 258.797 880.19 261.614C874.613 278.514 878.331 281.33 882.979 286.963L887.162 305.272L877.026 329H959.665L951.11 303L956.127 274.262L963.5 290.5L989 283L971.137 248.862C968.152 243.158 963.157 238.764 957.119 236.531Z" fill="white"/>
</mask>
<g mask="url(#mask3)">
<path d="M871.739 212.225C878.581 239.594 804.228 256.928 809.246 289.771C814.263 322.614 941.074 400.16 986.233 376.44C1031.39 352.72 1029.57 311.21 943.811 313.035C858.054 314.86 837.983 276.999 858.51 256.928C879.037 236.857 939.249 298.438 941.074 272.893C942.899 247.349 865.809 239.594 896.827 220.892C922.246 205.566 932.407 253.279 960.232 259.209C982.493 263.953 994.748 255.712 998.093 250.998C1019.23 261.185 1051.37 284.388 1010.87 295.701C970.359 307.014 901.237 292.508 871.739 283.841" stroke="#5FFFD8" stroke-width="7"/>
</g>
<path d="M848.891 278.766L893.035 284.936C894.845 285.189 896.373 286.41 897.019 288.12L906.82 314.04C908.159 317.581 905.23 321.268 901.478 320.764L863.8 315.702C862.049 315.467 860.552 314.325 859.862 312.699L846.224 280.544L848.891 278.766Z" fill="#BDBABA"/>
<path d="M847.453 280.582L893.018 286.961C893.742 287.062 894.353 287.55 894.612 288.234L906.821 320.522C907.356 321.939 906.185 323.413 904.684 323.212L863.204 317.639C860.725 317.306 858.612 315.675 857.661 313.361L845.326 283.323C844.739 281.894 845.924 280.368 847.453 280.582Z" fill="#2C2770"/>
<path d="M872.973 305.165C871.013 303.687 870.502 301.059 871.832 299.295C873.161 297.53 875.829 297.298 877.789 298.775C879.749 300.253 880.26 302.881 878.931 304.645C877.601 306.41 874.934 306.642 872.973 305.165Z" fill="white"/>
<path d="M968.616 298.856L964.011 287.211L987.124 280.988L991.709 302.468C993.698 311.785 986.61 320.572 977.083 320.599L924.102 320.75L918.666 323.874C918.484 323.979 918.294 324.069 918.097 324.144L910.648 326.983C910.561 327.017 910.471 327.043 910.38 327.063L897.969 329.708C897.324 329.845 896.657 329.591 896.268 329.058C895.564 328.094 896.065 326.724 897.225 326.442L905.743 324.374H892.5C891.993 324.374 891.528 324.097 891.287 323.651C890.818 322.783 891.386 321.718 892.368 321.624L902.989 320.604L887.326 319.22C886.722 319.167 886.196 318.785 885.958 318.227C885.513 317.18 886.238 316.009 887.373 315.941L901.52 315.101L888.341 313.023C887.441 312.881 886.743 312.162 886.628 311.258C886.476 310.057 887.393 308.987 888.602 308.952L905.743 308.466L904.451 307.657L901.784 300.545L909.724 301.872C910.171 301.946 910.61 302.059 911.037 302.207L920.538 305.516L968.616 298.856Z" fill="#FFAE64"/>
<path d="M894.477 171.325C895.6 162.342 904.302 161.032 908.513 161.5C910.853 160.096 915.531 154.482 925.357 155.885C935.182 157.289 946.411 162.903 943.603 175.536C943.603 175.536 950.154 191.444 952.025 197.994C957.639 212.03 949.516 222.211 937.989 223.259C922.549 224.663 929.568 223.259 905.706 226.066C881.845 228.873 880.441 209.223 886.055 196.59C891.67 183.958 893.074 182.554 894.477 171.325Z" fill="#2C2770"/>
<path d="M901.495 181.15V185.361C899.624 184.893 895.881 184.8 895.881 188.168C895.881 192.379 898.688 195.186 901.495 193.783C901.86 198.158 904.213 206.794 911.211 210.394C910.96 213.693 910.227 218.428 908.513 221.855C906.267 226.347 901.963 228.405 900.091 228.873C902.899 232.148 910.759 238.699 919.742 238.699C928.725 238.699 935.65 232.148 937.989 228.873C936.585 228.405 932.936 226.628 929.567 223.259C926.916 220.607 926.409 214.302 926.542 209.685C932.375 205.761 934.155 197.892 935.182 193.783C937.053 194.251 940.796 194.064 940.796 189.572C940.796 185.08 936.585 184.893 935.182 185.361V181.15C932.375 181.618 925.076 181.431 918.338 176.939C911.601 172.448 909.917 170.389 909.917 169.921C909.917 172.261 908.885 176.568 907.11 178.343C904.302 181.15 902.431 180.682 901.495 181.15Z" fill="#FFAE64"/>
<path d="M913.249 200.365L919.635 203.558C919.179 204.47 917.719 205.656 915.529 204.926C913.34 204.197 913.097 201.885 913.249 200.365Z" fill="white"/>
<path d="M926.933 181.206H931.495C932.251 181.206 932.863 181.819 932.863 182.575C932.863 183.331 932.251 183.943 931.495 183.943H926.933C926.177 183.943 925.565 183.331 925.565 182.575C925.565 181.819 926.177 181.206 926.933 181.206Z" fill="#2C2770"/>
<path d="M908.687 181.206H913.248C914.004 181.206 914.617 181.819 914.617 182.575C914.617 183.331 914.004 183.943 913.248 183.943H908.687C907.931 183.943 907.318 183.331 907.318 182.575C907.318 181.819 907.931 181.206 908.687 181.206Z" fill="#2C2770"/>
<path d="M911.424 188.505C910.668 188.505 910.056 187.892 910.056 187.136C910.056 186.381 910.668 185.768 911.424 185.768C912.18 185.768 912.792 186.381 912.792 187.136C912.792 187.892 912.18 188.505 911.424 188.505Z" fill="black"/>
<path d="M921.916 183.031V199.453H917.81" stroke="black"/>
<path d="M928.758 188.505C928.002 188.505 927.39 187.892 927.39 187.136C927.39 186.381 928.002 185.768 928.758 185.768C929.514 185.768 930.126 186.381 930.126 187.136C930.126 187.892 929.514 188.505 928.758 188.505Z" fill="black"/>
<path d="M899.108 188.049C898.652 189.113 898.561 191.333 901.845 191.698" stroke="black"/>
<path d="M938.105 188.049C938.562 189.113 938.653 191.333 935.369 191.698" stroke="black"/>
<mask id="mask4" mask-type="alpha" maskUnits="userSpaceOnUse" x="895" y="169" width="46" height="70">
<path d="M901.495 181.15V185.361C899.624 184.893 895.881 184.8 895.881 188.168C895.881 192.379 898.688 195.186 901.495 193.783C901.86 198.158 904.213 206.794 911.211 210.394C910.96 213.693 910.227 218.428 908.513 221.855C906.267 226.347 901.963 228.405 900.091 228.873C902.899 232.148 910.759 238.699 919.742 238.699C928.725 238.699 935.65 232.148 937.989 228.873C936.585 228.405 932.936 226.628 929.567 223.259C926.916 220.607 926.409 214.302 926.542 209.685C932.375 205.761 934.155 197.892 935.182 193.783C937.053 194.251 940.796 194.064 940.796 189.572C940.796 185.08 936.585 184.893 935.182 185.361V181.15C932.375 181.618 925.076 181.431 918.338 176.939C911.601 172.448 909.917 170.389 909.917 169.921C909.917 172.261 908.885 176.568 907.11 178.343C904.302 181.15 902.431 180.682 901.495 181.15Z" fill="white"/>
</mask>
<g mask="url(#mask4)">
<path d="M927.846 209.032C926.629 209.792 922.737 211.769 918.723 211.769C914.912 211.769 911.349 210.536 910.216 210.02L910.056 209.944C910.102 209.967 910.156 209.993 910.216 210.02L928.302 218.611L927.846 209.032Z" fill="#FF8282"/>
</g>
<path d="M294.795 524.094L282.222 513.318C275.533 507.585 276.813 490.075 276.813 490.075L258.832 489.103V508.543L255.916 518.748L293.337 526.038L294.795 524.094Z" fill="#FFAE64"/>
<path d="M288.518 535.758H300.533C302.096 535.758 303.541 534.928 304.328 533.578C305.518 531.539 304.89 528.92 302.925 527.611C300.55 526.03 297.083 523.68 292.851 520.692C284.589 514.861 281.187 510.973 281.187 510.973C281.187 510.973 276.327 513.889 269.038 513.889C261.748 513.889 257.86 508.543 257.86 508.543C254.732 516.363 254.62 525.065 257.545 532.963L257.86 533.814L271.953 534.786L274.383 532.842L280.811 534.679C283.318 535.395 285.912 535.758 288.518 535.758Z" fill="#2C2770"/>
<path d="M81.052 545.295L96.4074 534.8C104.576 529.218 123.194 535.712 123.194 535.712L129.492 516.492L108.407 510.823L98.1884 504.684L79.3687 543.146L81.052 545.295Z" fill="#FFAE64"/>
<path d="M70.2317 535.085L66.728 548.117C66.2722 549.812 66.7511 551.622 67.9857 552.869C69.8506 554.754 72.8744 554.838 74.8666 553.088C77.2746 550.973 80.8344 547.897 85.3089 544.178C94.0437 536.918 99.2527 534.362 99.2527 534.362C99.2527 534.362 97.5073 528.24 99.6331 520.333C101.759 512.427 108.691 509.769 108.691 509.769C101.122 504.096 91.7149 501.436 82.2955 502.305L81.2809 502.399L76.1166 517.402L77.5165 520.605L73.65 527.041C72.1424 529.55 70.9919 532.258 70.2317 535.085Z" fill="#2C2770"/>
<path d="M115.722 509.995C74.6148 492.11 77.284 470.613 83.6904 440.995L204.706 390.792C212.108 387.721 220.312 387.16 228.063 389.194C239.453 392.183 248.715 400.461 252.959 411.446L287 499.559L257 506.559L212.981 440.995L174.173 470.613L236.467 488.666C247.307 491.808 254.531 502.033 253.87 513.3C253.121 526.079 242.539 536.059 229.738 536.059H110.022L115.722 509.995Z" fill="#2C2770"/>
<path d="M128 467.559C125 479.226 125.6 502.559 152 502.559C171.814 502.559 192.68 502.559 206.437 502.559C212.721 502.559 217.985 507.314 218.623 513.565C219.36 520.785 213.694 527.059 206.436 527.059H114.5" stroke="white"/>
<path d="M239 457.559L266 500.059" stroke="white"/>
<path d="M268.611 273.24C262.83 275.459 260.244 277.351 257.455 285.059C256.711 280.263 256.339 270.26 260.802 268.616C266.38 266.56 275.306 270.671 268.611 273.24Z" fill="#D76767"/>
<path d="M243.26 271.143L256.811 256.071L263.952 240.062C264.213 239.478 264.981 239.343 265.425 239.804C266.46 240.878 266.898 242.394 266.594 243.854L259.559 277.624L257.837 286.059L243.26 287.374V271.143Z" fill="#FF9330"/>
<path d="M215.226 415.059L193.116 417.625L186 432.12L189.795 436.952L200.47 441.059L212.323 422.073L220.518 419.071C220.782 418.974 221.024 418.824 221.229 418.631C222.587 417.344 221.677 415.059 219.806 415.059H215.226Z" fill="#FF9330"/>
<path d="M79.9777 373.59L123.861 324.059L155.157 343.168L127.044 375.547L196 415.357L185.391 436.059L84.4192 393.236C78.5168 390.733 75.4945 384.144 77.4472 378.038C77.9724 376.395 78.8342 374.88 79.9777 373.59Z" fill="#0B86DF"/>
<path d="M138.217 328.568C140.827 323.858 142.525 307.696 143.048 300.204C151.942 303.003 168.998 311.406 166.073 322.627C163.147 333.848 166.967 337.226 169.242 337.513C171.048 343.199 171.23 354.769 157.514 355.562C143.797 356.354 134.068 343.162 130.918 336.467C132.263 335.797 135.606 333.279 138.217 328.568Z" fill="#FF9330"/>
<mask id="mask5" mask-type="alpha" maskUnits="userSpaceOnUse" x="134" y="293" width="40" height="56">
<path d="M141.502 321.549C144.092 316.899 145.767 300.936 146.281 293.536C155.12 296.308 172.073 304.621 169.174 315.702C166.276 326.783 170.073 330.122 172.334 330.407C174.133 336.025 174.323 347.453 160.695 348.225C147.067 348.998 137.391 335.961 134.256 329.346C135.592 328.685 138.912 326.199 141.502 321.549Z" fill="white"/>
</mask>
<g mask="url(#mask5)">
<path d="M169.618 325.852C149.812 321.142 145.466 303.411 145.769 295.134L171.129 313.848C178.878 319.812 189.424 330.563 169.618 325.852Z" fill="#D76767"/>
</g>
<mask id="mask6" mask-type="alpha" maskUnits="userSpaceOnUse" x="134" y="293" width="40" height="56">
<path d="M141.475 321.439C144.065 316.788 145.741 300.826 146.255 293.426C155.093 296.197 172.046 304.511 169.147 315.592C166.249 326.673 170.046 330.012 172.307 330.297C174.106 335.914 174.296 347.343 160.668 348.115C147.04 348.888 137.364 335.851 134.229 329.236C135.565 328.574 138.885 326.089 141.475 321.439Z" fill="white"/>
</mask>
<g mask="url(#mask6)">
<path d="M169.591 325.742C149.785 321.032 145.44 303.301 145.742 295.024L171.102 313.738C178.851 319.702 189.396 330.453 169.591 325.742Z" fill="#D76767"/>
</g>
<path d="M147.291 303.119C149.361 309.662 161.616 318.306 175.663 312.26C179.966 310.408 181.127 309.387 182.192 304.593C183.354 299.367 181.129 292.874 181.661 290.906C182.056 289.448 184.325 290.21 184.857 288.079C185.503 285.495 179.792 279.458 179.53 277.425C178.857 272.184 177.766 268.095 175.831 264.847L161.715 265.585C164.319 267.255 163.559 266.957 157.851 269.143C152.203 271.306 148.758 268.921 145.997 267.978C147.528 275.394 135.922 271.461 137.259 274.951C138.328 277.742 147.318 295.26 148.135 297.392C146.145 298.154 144.701 291.292 142.614 290.906C140.266 290.471 136.149 291.114 138.465 297.163C140.782 303.211 145.315 303.654 147.291 303.119Z" fill="#FF9330"/>
<path d="M172.605 297.668C176.015 298.946 178.642 298.733 180.596 297.668L180.063 293.939L172.605 297.668Z" fill="white"/>
<path d="M169.623 274.601L173.885 272.266C174.592 271.879 175.478 272.138 175.864 272.844C176.251 273.551 175.992 274.437 175.286 274.824L171.024 277.158C170.317 277.545 169.431 277.286 169.044 276.58C168.658 275.873 168.917 274.987 169.623 274.601Z" fill="#2C2770"/>
<path d="M176.427 279.889C175.72 280.276 174.834 280.017 174.448 279.31C174.061 278.604 174.32 277.718 175.026 277.331C175.732 276.945 176.618 277.204 177.005 277.91C177.392 278.616 177.133 279.502 176.427 279.889Z" fill="black"/>
<path d="M155.386 291.177C155.386 291.177 150.231 282.752 147.035 287.547C143.297 293.153 150.765 296.07 150.765 296.07C149.699 302.462 146.153 304.439 144.372 303.528C121.466 291.808 124.101 261.469 140 259.559C157.408 257.468 149.035 242.059 163 242.059C176.551 242.937 180.371 261.845 175.528 264.655C161.059 273.048 158.836 268.949 157.418 271.203C155.999 273.458 156.508 282.191 157.418 287.547C157.757 289.542 157.616 290.649 157.239 291.177C156.808 291.783 156.066 291.628 155.386 291.177Z" fill="#2C2770"/>
<path d="M114.354 335.416C101.164 384.613 82.1888 442.793 81 445.962C102.261 445.962 100.667 465.625 130.432 469.345C154.245 472.321 164.805 465.271 167.108 461.374L180.396 363.591L207.278 356.791C218.226 354.021 227.437 346.641 232.527 336.56L258 286.112L243.117 270.059L208.568 317.356H143.173C141.071 317.356 138.982 317.688 136.983 318.338L127.59 321.396C121.084 323.514 116.125 328.808 114.354 335.416Z" fill="#6B8CFF"/>
<path d="M118.821 373.055C138.161 372.623 156.262 349.331 152.501 318.059C139.249 318.059 114.2 321.294 108.613 321.294C101.629 321.294 94.6447 373.594 118.821 373.055Z" fill="#0B86DF"/>
<path d="M116.709 369.055C135.922 368.63 148.908 334.88 153 318.059H106.569C99.6313 318.059 92.6934 369.586 116.709 369.055Z" fill="#6B8CFF"/>
<path d="M250.5 279.059L221.5 337.059L173.5 353.559L153 466.559" stroke="white"/>
<path d="M187.618 467.115L234.003 464.538L276.097 397.482L224.235 401.522L186.448 463.574L187.618 467.115Z" fill="#DAE2FF"/>
<path d="M186.448 463.574L233.206 461.054L276.8 394.144L224.938 398.184L186.448 463.574Z" fill="#6B8CFF"/>
<path d="M242.251 341.863L196.766 410.25L225.271 464.824L232.503 464.392L275.635 399.401L249 341.863H242.251Z" fill="#DAE2FF"/>
<path d="M244.757 344.329L202.744 407.523C201.732 409.045 201.631 410.998 202.48 412.616L228.576 462.317C230.336 465.669 235.038 465.925 237.152 462.784L278.359 401.539C279.357 400.056 279.487 398.154 278.701 396.549L253.411 344.898C251.714 341.431 246.894 341.114 244.757 344.329Z" fill="#1BE3B3"/>
<path d="M248.749 403.257C249.088 399.029 246.278 395.355 242.473 395.05C238.668 394.745 235.309 397.926 234.971 402.153C234.632 406.381 237.442 410.055 241.247 410.36C245.052 410.665 248.411 407.485 248.749 403.257Z" fill="#DAE2FF"/>
<defs>
<linearGradient id="paint0_linear" x1="631.998" y1="97.0029" x2="623.296" y2="105.686" gradientUnits="userSpaceOnUse">
<stop stop-color="#FFF465"/>
<stop offset="1" stop-color="#FFE600"/>
</linearGradient>
</defs>
</svg>
